<svg width="143" height="32" viewBox="0 0 143 32" fill="none" xmlns="http://www.w3.org/2000/svg">
<g filter="url(#filter0_d_1561_39645)">
<path d="M32.6781 22.5333L31.4184 25.06C31.2332 25.4316 30.9302 25.7298 30.557 25.9044C30.5249 25.9194 30.4924 25.9335 30.4592 25.9469C29.8081 26.2058 28.6972 26.5052 27.1343 26.4328C26.0295 26.3824 24.6985 26.1462 23.1448 25.5789C22.4714 25.3335 21.7568 25.0261 21 24.6443C20.0363 24.1583 19.2082 23.658 18.4974 23.1569C17.1588 22.2145 16.2342 21.2702 15.5954 20.4149C14.7905 19.3381 14.4389 18.4028 14.2849 17.7917C14.2569 17.6812 14.2401 17.5692 14.2331 17.4568C14.2135 17.1345 14.2794 16.8105 14.4251 16.5185L15.6949 13.9719L32.6781 22.5333Z" fill="url(#paint0_linear_1561_39645)"/>
<path d="M30.908 17.0862C31.3207 17.5184 31.6716 17.9489 31.9613 18.3716C32.7556 19.5317 33.0894 20.6364 32.9797 21.5729C32.8866 22.3718 32.4701 23.048 31.7412 23.5309C31.2595 23.8504 30.6413 24.0855 29.8893 24.2158C29.3557 24.3084 28.7838 24.3429 28.1868 24.3247C26.9197 24.2863 25.5377 24.0097 24.1614 23.5427C22.531 22.9892 20.909 22.1678 19.4962 21.156C18.7539 20.6242 18.0694 20.0401 17.4715 19.4143C17.1456 19.0734 16.8587 18.7337 16.6095 18.3976C15.7473 17.2338 15.343 16.1152 15.3817 15.1554C15.4205 14.1822 15.9144 13.3715 16.8457 12.8417C17.2933 12.587 17.8421 12.3971 18.4899 12.2848C19.1268 12.1746 19.8184 12.1466 20.5425 12.1921C21.8336 12.2739 23.2284 12.5906 24.6066 13.0951C26.2313 13.6897 27.8315 14.5451 29.2076 15.5841C29.8254 16.05 30.3984 16.553 30.908 17.0862Z" fill="url(#paint1_linear_1561_39645)"/>
<path d="M28.6962 22.9672C25.7671 23.4746 21.3625 21.7716 18.8776 19.1706C16.3927 16.5696 16.7541 14.0406 19.6829 13.5332C22.6121 13.0258 27.0167 14.7288 29.5016 17.3298C31.9866 19.9308 31.6252 22.4597 28.6962 22.9672ZM19.9482 13.8108C17.1915 14.2885 16.8515 16.6686 19.19 19.1164C21.529 21.5643 25.6743 23.1675 28.4313 22.6896C31.188 22.2119 31.5281 19.8319 29.1895 17.384C26.8506 14.9361 22.7052 13.333 19.9482 13.8108Z" fill="url(#paint2_linear_1561_39645)"/>
<path d="M27.8879 22.1208C25.4843 22.5373 21.8697 21.1397 19.8308 19.0054C17.7916 16.8712 18.088 14.796 20.4916 14.3796C22.8953 13.9632 26.5098 15.3607 28.5488 17.4949C30.588 19.6292 30.2915 21.7044 27.8879 22.1208ZM20.6771 14.5739C18.3941 14.9695 18.1126 16.9404 20.0494 18.9678C21.9861 20.9949 25.4194 22.3225 27.7025 21.9269C29.9854 21.5312 30.2669 19.5604 28.3301 17.5329C26.3933 15.5058 22.9601 14.1783 20.6771 14.5739Z" fill="url(#paint3_linear_1561_39645)"/>
<path d="M20.5464 12.1915L21.355 13.2195C21.355 13.2195 20.477 13.1262 19.4489 13.3041C18.4777 13.4718 17.9492 13.8081 17.9492 13.8081L16.8499 12.8394C17.2973 12.585 17.846 12.3956 18.4938 12.2836C19.1306 12.1735 19.8224 12.1458 20.5464 12.1915Z" fill="url(#paint4_linear_1561_39645)"/>
<path d="M29.2078 15.5784L28.544 16.159C28.544 16.159 27.8042 15.5599 26.5272 14.8672C25.3222 14.2135 24.3159 13.8646 24.3159 13.8646L24.6059 13.0895C26.2309 13.6843 27.8314 14.5396 29.2078 15.5784Z" fill="url(#paint5_linear_1561_39645)"/>
<path d="M31.9562 18.367C32.7514 19.5275 33.0857 20.6325 32.9761 21.5693L31.4886 21.1372C31.4886 21.1372 31.6079 20.6158 31.327 19.7272C31.062 18.8879 30.5586 18.1939 30.5586 18.1939L31.9562 18.367Z" fill="url(#paint6_linear_1561_39645)"/>
<path d="M31.7345 23.5327C31.2528 23.8517 30.6347 24.0865 29.8828 24.2164C29.3492 24.3088 28.7773 24.3432 28.1804 24.3249L27.3174 23.301C27.3174 23.301 28.1793 23.3659 29.1686 23.1483C30.1023 22.9427 30.5928 22.58 30.5928 22.58L31.7345 23.5327Z" fill="url(#paint7_linear_1561_39645)"/>
<path d="M24.3836 22.7442L24.158 23.5477C22.5273 22.9941 20.9051 22.1727 19.4919 21.1611L20.0959 20.5435C20.0959 20.5435 20.8608 21.1306 22.1552 21.7952C23.3775 22.4228 24.3836 22.7442 24.3836 22.7442Z" fill="url(#paint8_linear_1561_39645)"/>
<path d="M16.8641 15.5492C16.8641 15.5492 16.7859 16.0867 17.1248 16.9868C17.4446 17.8365 17.9856 18.5296 17.9856 18.5296L16.6124 18.4013C15.7494 17.2371 15.3447 16.1182 15.3831 15.1582L16.8641 15.5492Z" fill="url(#paint9_linear_1561_39645)"/>
<path d="M16.609 18.398L15.6006 20.4204C14.795 19.3428 14.443 18.4068 14.2889 17.7953C14.2608 17.6847 14.244 17.5726 14.2371 17.4602L15.3842 15.1594C15.3455 16.1182 15.7488 17.2352 16.609 18.398Z" fill="url(#paint10_linear_1561_39645)"/>
<path d="M24.1583 23.5496L23.1443 25.5838C22.471 25.3383 21.7562 25.0309 20.9994 24.6491C20.0357 24.1629 19.2075 23.6626 18.4966 23.1614L19.4932 21.1623C20.9062 22.1739 22.5278 22.9959 24.1583 23.5496Z" fill="url(#paint11_linear_1561_39645)"/>
<path d="M31.7342 23.5337L30.5523 25.9049C30.5203 25.9199 30.4877 25.9339 30.4545 25.9473C29.8033 26.2064 28.6924 26.5057 27.1294 26.4333L28.1792 24.3272C28.7762 24.3454 29.3481 24.3108 29.8818 24.2182C30.6335 24.0879 31.2526 23.8531 31.7342 23.5337Z" fill="url(#paint12_linear_1561_39645)"/>
<path d="M21.8786 5.85812L24.0412 8.50809C24.2287 8.72776 24.3188 9.03053 24.3122 9.40737C24.2981 10.2309 23.8234 11.4067 22.8962 12.827C22.4804 13.4644 21.9732 14.1509 21.376 14.8773C20.8923 15.466 20.3726 16.0519 19.8279 16.6261C18.3346 18.2022 16.6515 19.6978 14.9815 20.9609C13.5582 22.0381 12.1447 22.9455 10.8687 23.588C10.0248 24.0128 9.24128 24.3218 8.55453 24.4879C8.06686 24.6056 7.65487 24.6449 7.31714 24.6125C6.90775 24.5738 6.60816 24.4287 6.41723 24.1909L4.26929 21.559L6.77702 19.8599L7.18587 20.5304C7.24533 20.4291 7.30712 20.3263 7.37182 20.2217C7.8232 19.4941 8.39949 18.697 9.10023 17.8446C9.48244 17.38 9.886 16.9178 10.3075 16.4607C11.7656 14.8782 13.4286 13.3633 15.0939 12.0683C16.7822 10.7551 18.4731 9.66772 19.9545 8.96459C19.9813 8.95176 20.0078 8.93961 20.0343 8.92687L19.1212 8.12897L21.8786 5.85812Z" fill="url(#paint13_linear_1561_39645)"/>
<path d="M19.2113 12.2241C18.7272 12.8127 18.2077 13.3982 17.6632 13.9726C16.17 15.5487 14.487 17.0438 12.8172 18.307C11.3939 19.3838 9.98049 20.2911 8.70458 20.9336C7.8607 21.3586 7.07759 21.6675 6.39053 21.8334C5.90295 21.9514 5.49067 21.9907 5.15296 21.9583C4.43662 21.8899 4.05617 21.4988 4.0058 20.8503C3.94595 20.0818 4.34964 18.952 5.2079 17.5677C5.65899 16.8404 6.23545 16.0428 6.93651 15.1907C7.31838 14.7262 7.72223 14.2639 8.14343 13.807C9.60176 12.2249 11.2647 10.7101 12.9299 9.41494C14.6183 8.10185 16.3088 7.01462 17.7904 6.31122C18.5021 5.97323 19.1657 5.72423 19.7575 5.58105C20.3394 5.44057 20.8139 5.4119 21.183 5.48266C21.84 5.61013 22.1596 6.05557 22.1478 6.75426C22.1337 7.5781 21.6591 8.75338 20.7316 10.1736C20.3161 10.8106 19.8088 11.4977 19.2113 12.2241Z" fill="url(#paint14_linear_1561_39645)"/>
<path d="M7.78963 20.1327C5.11386 20.7795 5.30758 18.4233 8.22116 14.8803C11.1351 11.3374 15.6827 7.92894 18.3584 7.28218C21.0342 6.63542 20.8405 8.99161 17.9269 12.5346C15.0129 16.0775 10.4654 19.4859 7.78963 20.1327ZM18.0479 7.66005C15.5294 8.26862 11.2494 11.4766 8.50687 14.8113C5.7643 18.1457 5.58206 20.3634 8.10048 19.7548C10.6189 19.1462 14.899 15.9383 17.6415 12.6036C20.3841 9.26923 20.5666 7.05142 18.0479 7.66005Z" fill="url(#paint15_linear_1561_39645)"/>
<path d="M8.73788 18.9797C6.54198 19.5105 6.7009 17.5768 9.09215 14.6695C11.4831 11.7623 15.2148 8.96535 17.4108 8.43481C19.6066 7.904 19.4477 9.83766 17.0565 12.745C14.6655 15.6522 10.9339 18.4492 8.73788 18.9797ZM17.193 8.69927C15.1075 9.20346 11.5631 11.86 9.2919 14.6213C7.02065 17.3826 6.86973 19.2191 8.95556 18.7149C11.0411 18.2107 14.5855 15.5542 16.8567 12.7929C19.1279 10.0316 19.2788 8.19508 17.193 8.69927Z" fill="url(#paint16_linear_1561_39645)"/>
<path d="M21.1704 5.48172L19.9103 6.87864C19.9103 6.87864 19.5279 6.74177 18.5887 6.96906C17.7018 7.18349 16.7998 7.63034 16.7998 7.63034L17.779 6.30961C18.4906 5.97197 19.1541 5.72318 19.7457 5.58005C20.3274 5.43962 20.8014 5.41121 21.1704 5.48172Z" fill="url(#paint17_linear_1561_39645)"/>
<path d="M20.7218 10.1773L19.3174 10.9535C19.3174 10.9535 19.886 10.1347 20.2831 9.18267C20.6578 8.28435 20.6332 7.80051 20.6332 7.80051L22.1396 6.75662C22.1253 7.58069 21.6502 8.75631 20.7218 10.1773Z" fill="url(#paint18_linear_1561_39645)"/>
<path d="M17.6669 13.9783C16.1729 15.5542 14.4892 17.0494 12.8188 18.3128L12.6394 17.7113C12.6394 17.7113 13.6049 17.0093 14.9517 15.8065C16.2236 14.6706 17.1 13.7275 17.1 13.7275L17.6669 13.9783Z" fill="url(#paint19_linear_1561_39645)"/>
<path d="M8.71799 20.9349C7.87427 21.3595 7.09133 21.6682 6.40444 21.8339C5.91698 21.9519 5.50482 21.9913 5.16724 21.9592L6.3866 20.5671C6.3866 20.5671 6.80777 20.6654 7.79152 20.3838C8.72004 20.1181 9.64379 19.6347 9.64379 19.6347L8.71799 20.9349Z" fill="url(#paint20_linear_1561_39645)"/>
<path d="M5.53209 19.7648L4.01649 20.8478C3.95687 20.0792 4.36119 18.949 5.22048 17.5638L6.65196 16.7365C6.65196 16.7365 6.11894 17.5397 5.78076 18.4539C5.46153 19.3172 5.53209 19.7648 5.53209 19.7648Z" fill="url(#paint21_linear_1561_39645)"/>
<path d="M13.1774 9.955C13.1774 9.955 12.2097 10.6793 10.8791 11.8986C9.62321 13.0494 8.77139 13.9914 8.77139 13.9914L8.14307 13.801C9.60213 12.219 11.2657 10.7041 12.9316 9.40881L13.1774 9.955Z" fill="url(#paint22_linear_1561_39645)"/>
<path d="M8.7196 20.939L10.8825 23.5888C10.0385 24.0136 9.25513 24.3225 8.56845 24.4886C8.08082 24.6063 7.66888 24.6455 7.33117 24.6132L5.1687 21.9636C5.5064 21.996 5.91836 21.9567 6.40598 21.8391C7.09266 21.673 7.87611 21.3643 8.7196 20.939Z" fill="url(#paint23_linear_1561_39645)"/>
<path d="M17.6667 13.9807L19.8297 16.6312C18.3362 18.2078 16.6528 19.7037 14.9826 20.967L12.8196 18.3165C14.4897 17.0531 16.1731 15.5572 17.6667 13.9807Z" fill="url(#paint24_linear_1561_39645)"/>
<path d="M22.1364 6.75894L24.301 9.41095C24.2869 10.2352 23.8118 11.4118 22.8837 12.8332L20.7192 10.1812C21.6472 8.75982 22.1224 7.58319 22.1364 6.75894Z" fill="url(#paint25_linear_1561_39645)"/>
</g>
<path d="M45.1913 22.2857C44.3428 22.2857 43.546 22.1652 42.8008 21.9241C42.0555 21.683 41.3963 21.3156 40.823 20.8219C40.2497 20.3168 39.8026 19.6738 39.4815 18.8932C39.1605 18.101 39 17.1653 39 16.0861V15.7417C39 14.7084 39.1605 13.8187 39.4815 13.0724C39.8026 12.3147 40.2497 11.689 40.823 11.1953C41.3963 10.6901 42.0555 10.317 42.8008 10.0759C43.546 9.83483 44.3428 9.71429 45.1913 9.71429C46.0397 9.71429 46.8366 9.83483 47.5818 10.0759C48.327 10.317 48.9863 10.6901 49.5596 11.1953C50.1328 11.689 50.58 12.3147 50.901 13.0724C51.222 13.8187 51.3826 14.7084 51.3826 15.7417V16.0861C51.3826 17.1538 51.222 18.078 50.901 18.8587C50.58 19.6394 50.1328 20.2823 49.5596 20.7875C48.9863 21.2926 48.327 21.6715 47.5818 21.9241C46.8366 22.1652 46.0397 22.2857 45.1913 22.2857ZM45.1913 18.6004C45.5123 18.6004 45.7875 18.52 46.0168 18.3593C46.2461 18.1871 46.4238 17.9173 46.5499 17.5499C46.676 17.171 46.7391 16.6831 46.7391 16.0861V15.7417C46.7391 15.1906 46.676 14.7429 46.5499 14.3984C46.4238 14.054 46.2461 13.8014 46.0168 13.6407C45.7875 13.48 45.5123 13.3996 45.1913 13.3996C44.8703 13.3996 44.5951 13.48 44.3658 13.6407C44.1365 13.8014 43.9588 14.054 43.8326 14.3984C43.7065 14.7429 43.6435 15.1906 43.6435 15.7417V16.0861C43.6435 16.6831 43.7065 17.171 43.8326 17.5499C43.9588 17.9173 44.1365 18.1871 44.3658 18.3593C44.5951 18.52 44.8703 18.6004 45.1913 18.6004Z" fill="url(#paint26_linear_1561_39645)"/>
<path d="M52.4104 22.0274V9.9726H56.0908L59.9087 14.9667V9.9726H64.105V22.0274H60.4247L56.6067 17.0333V22.0274H52.4104Z" fill="url(#paint27_linear_1561_39645)"/>
<path d="M65.4769 22.0274V9.9726H70.0171V18.3765H74.4198V22.0274H65.4769Z" fill="url(#paint28_linear_1561_39645)"/>
<path d="M76.8309 22.0274V17.8082L72.5658 9.9726H77.7596L79.2558 13.1585L80.6145 9.9726H85.2923L81.3712 17.8082V22.0274H76.8309Z" fill="url(#paint29_linear_1561_39645)"/>
<path d="M88 7.36242C88 6.05769 89.0971 5 90.4506 5H136.549C137.903 5 139 6.05769 139 7.36242V24.6376C139 25.9423 137.903 27 136.549 27H90.4506C89.0971 27 88 25.9423 88 24.6376V7.36242Z" fill="url(#paint30_linear_1561_39645)"/>
<path d="M91.9231 21.274V10.726H98.5543C99.8532 10.726 100.819 10.9521 101.452 11.4041C102.085 11.8562 102.402 12.5694 102.402 13.5438C102.402 14.0863 102.255 14.5534 101.96 14.9452C101.676 15.3269 101.278 15.6032 100.765 15.774C101.474 15.9247 102.004 16.211 102.353 16.6329C102.713 17.0548 102.893 17.6073 102.893 18.2904C102.893 18.9434 102.746 19.4959 102.451 19.9479C102.156 20.39 101.687 20.7215 101.043 20.9425C100.41 21.1635 99.5749 21.274 98.5379 21.274H91.9231ZM96.2456 18.6822H97.228C97.7411 18.6822 98.0903 18.6219 98.2759 18.5014C98.4724 18.3808 98.5706 18.1699 98.5706 17.8685C98.5706 17.5772 98.4724 17.3712 98.2759 17.2507C98.0794 17.1301 97.7192 17.0699 97.1953 17.0699H96.2456V18.6822ZM96.2456 14.7795H97.0152C97.3863 14.7795 97.6537 14.7242 97.8175 14.6137C97.9921 14.4932 98.0794 14.3023 98.0794 14.0411C98.0794 13.7799 97.9921 13.5941 97.8175 13.4836C97.6537 13.3731 97.3972 13.3178 97.0479 13.3178H96.2456V14.7795Z" fill="#110D15"/>
<path d="M103.883 21.274V10.726H112.889V13.6192H108.206V14.7041H112.397V17.1452H108.206V18.3808H112.889V21.274H103.883Z" fill="#110D15"/>
<path d="M116.785 21.274V13.9205H113.789V10.726H124.104V13.9205H121.108V21.274H116.785Z" fill="#110D15"/>
<path d="M129.756 21.5C128.664 21.5 127.742 21.3845 126.989 21.1534C126.235 20.9123 125.646 20.5406 125.22 20.0384C124.805 19.5361 124.543 18.8931 124.434 18.1096H128.757C128.79 18.3205 128.877 18.4763 129.019 18.5767C129.161 18.6772 129.406 18.7274 129.756 18.7274C130.138 18.7274 130.4 18.6922 130.542 18.6219C130.683 18.5416 130.754 18.421 130.754 18.2603C130.754 18.1397 130.7 18.0443 130.591 17.974C130.481 17.8936 130.269 17.8132 129.952 17.7329C129.636 17.6525 129.161 17.5521 128.528 17.4315C127.807 17.2909 127.163 17.095 126.596 16.8438C126.028 16.5826 125.58 16.221 125.253 15.7589C124.925 15.2968 124.762 14.6991 124.762 13.9658C124.762 13.1822 124.969 12.5342 125.384 12.0219C125.81 11.5096 126.399 11.1279 127.152 10.8767C127.905 10.6256 128.773 10.5 129.756 10.5C130.803 10.5 131.682 10.6306 132.392 10.8918C133.101 11.153 133.658 11.5297 134.062 12.0219C134.466 12.5041 134.722 13.0767 134.831 13.7397H130.509C130.487 13.5991 130.416 13.4886 130.296 13.4082C130.187 13.3178 130.007 13.2726 129.756 13.2726C129.537 13.2726 129.368 13.3128 129.248 13.3931C129.139 13.4635 129.084 13.579 129.084 13.7397C129.084 13.9306 129.215 14.0763 129.477 14.1767C129.739 14.2671 130.241 14.3726 130.984 14.4932C131.464 14.5735 131.944 14.684 132.424 14.8247C132.905 14.9552 133.347 15.1461 133.751 15.3973C134.155 15.6384 134.477 15.9598 134.717 16.3616C134.957 16.7635 135.077 17.2658 135.077 17.8685C135.077 18.6922 134.859 19.3753 134.422 19.9178C133.985 20.4502 133.369 20.847 132.572 21.1082C131.775 21.3694 130.836 21.5 129.756 21.5Z" fill="#110D15"/>
<defs>
<filter id="filter0_d_1561_39645" x="3.0402" y="5.44461" width="30.9196" height="22.9193" filterUnits="userSpaceOnUse" color-interpolation-filters="sRGB">
<feFlood flood-opacity="0" result="BackgroundImageFix"/>
<feColorMatrix in="SourceAlpha" type="matrix" values="0 0 0 0 0 0 0 0 0 0 0 0 0 0 0 0 0 0 127 0" result="hardAlpha"/>
<feOffset dy="0.959802"/>
<feGaussianBlur stdDeviation="0.479901"/>
<feComposite in2="hardAlpha" operator="out"/>
<feColorMatrix type="matrix" values="0 0 0 0 0 0 0 0 0 0 0 0 0 0 0 0 0 0 0.25 0"/>
<feBlend mode="normal" in2="BackgroundImageFix" result="effect1_dropShadow_1561_39645"/>
<feBlend mode="normal" in="SourceGraphic" in2="effect1_dropShadow_1561_39645" result="shape"/>
</filter>
<linearGradient id="paint0_linear_1561_39645" x1="26.1975" y1="22.7676" x2="21.7661" y2="18.1714" gradientUnits="userSpaceOnUse">
<stop stop-color="#111010"/>
<stop offset="0.52" stop-color="#1A1A1A"/>
<stop offset="1" stop-color="#343333"/>
</linearGradient>
<linearGradient id="paint1_linear_1561_39645" x1="26.8506" y1="20.6406" x2="22.438" y2="16.2388" gradientUnits="userSpaceOnUse">
<stop stop-color="#111010"/>
<stop offset="0.52" stop-color="#1A1A1A"/>
<stop offset="1" stop-color="#343333"/>
</linearGradient>
<linearGradient id="paint2_linear_1561_39645" x1="25.2518" y1="13.4438" x2="25.1949" y2="23.0564" gradientUnits="userSpaceOnUse">
<stop stop-color="#FFD27E"/>
<stop offset="1" stop-color="#FB966A"/>
</linearGradient>
<linearGradient id="paint3_linear_1561_39645" x1="25.0614" y1="14.3062" x2="25.0147" y2="22.194" gradientUnits="userSpaceOnUse">
<stop stop-color="#FFD27E"/>
<stop offset="1" stop-color="#FB966A"/>
</linearGradient>
<linearGradient id="paint4_linear_1561_39645" x1="19.446" y1="12.1704" x2="19.4409" y2="13.8081" gradientUnits="userSpaceOnUse">
<stop stop-color="#FFD27E"/>
<stop offset="1" stop-color="#FB966A"/>
</linearGradient>
<linearGradient id="paint5_linear_1561_39645" x1="27.135" y1="13.0895" x2="27.1185" y2="16.1589" gradientUnits="userSpaceOnUse">
<stop stop-color="#FFD27E"/>
<stop offset="1" stop-color="#FB966A"/>
</linearGradient>
<linearGradient id="paint6_linear_1561_39645" x1="31.9634" y1="18.1939" x2="31.9234" y2="21.5689" gradientUnits="userSpaceOnUse">
<stop stop-color="#FFD27E"/>
<stop offset="1" stop-color="#FB966A"/>
</linearGradient>
<linearGradient id="paint7_linear_1561_39645" x1="29.8628" y1="22.58" x2="29.8569" y2="24.3296" gradientUnits="userSpaceOnUse">
<stop stop-color="#FFD27E"/>
<stop offset="1" stop-color="#FB966A"/>
</linearGradient>
<linearGradient id="paint8_linear_1561_39645" x1="22.3108" y1="20.5435" x2="22.295" y2="23.5476" gradientUnits="userSpaceOnUse">
<stop stop-color="#FFD27E"/>
<stop offset="1" stop-color="#FB966A"/>
</linearGradient>
<linearGradient id="paint9_linear_1561_39645" x1="16.8818" y1="15.1582" x2="16.8444" y2="18.5292" gradientUnits="userSpaceOnUse">
<stop stop-color="#FFD27E"/>
<stop offset="1" stop-color="#FB966A"/>
</linearGradient>
<linearGradient id="paint10_linear_1561_39645" x1="15.6039" y1="15.1594" x2="15.504" y2="20.4186" gradientUnits="userSpaceOnUse">
<stop stop-color="#FFD27E"/>
<stop offset="1" stop-color="#FB966A"/>
</linearGradient>
<linearGradient id="paint11_linear_1561_39645" x1="21.7595" y1="21.1623" x2="21.7299" y2="25.5836" gradientUnits="userSpaceOnUse">
<stop stop-color="#FFD27E"/>
<stop offset="1" stop-color="#FB966A"/>
</linearGradient>
<linearGradient id="paint12_linear_1561_39645" x1="29.783" y1="23.5337" x2="29.7672" y2="26.4443" gradientUnits="userSpaceOnUse">
<stop stop-color="#FFD27E"/>
<stop offset="1" stop-color="#FB966A"/>
</linearGradient>
<linearGradient id="paint13_linear_1561_39645" x1="18.1843" y1="17.7288" x2="11.0809" y2="14.1618" gradientUnits="userSpaceOnUse">
<stop/>
<stop offset="0.52" stop-color="#1A1A1A"/>
<stop offset="1" stop-color="#343333"/>
</linearGradient>
<linearGradient id="paint14_linear_1561_39645" x1="16.6615" y1="15.6995" x2="10.3997" y2="12.228" gradientUnits="userSpaceOnUse">
<stop/>
<stop offset="0.52" stop-color="#1A1A1A"/>
<stop offset="1" stop-color="#343333"/>
</linearGradient>
<linearGradient id="paint15_linear_1561_39645" x1="14.1679" y1="7.17532" x2="14.066" y2="20.2388" gradientUnits="userSpaceOnUse">
<stop stop-color="#FFD27E"/>
<stop offset="1" stop-color="#FB966A"/>
</linearGradient>
<linearGradient id="paint16_linear_1561_39645" x1="13.972" y1="8.34711" x2="13.8883" y2="19.0668" gradientUnits="userSpaceOnUse">
<stop stop-color="#FFD27E"/>
<stop offset="1" stop-color="#FB966A"/>
</linearGradient>
<linearGradient id="paint17_linear_1561_39645" x1="19.3186" y1="5.44434" x2="19.3092" y2="7.63031" gradientUnits="userSpaceOnUse">
<stop stop-color="#FFD27E"/>
<stop offset="1" stop-color="#FB966A"/>
</linearGradient>
<linearGradient id="paint18_linear_1561_39645" x1="20.9438" y1="6.75662" x2="20.8903" y2="10.9529" gradientUnits="userSpaceOnUse">
<stop stop-color="#FFD27E"/>
<stop offset="1" stop-color="#FB966A"/>
</linearGradient>
<linearGradient id="paint19_linear_1561_39645" x1="15.5366" y1="13.7275" x2="15.5008" y2="18.3125" gradientUnits="userSpaceOnUse">
<stop stop-color="#FFD27E"/>
<stop offset="1" stop-color="#FB966A"/>
</linearGradient>
<linearGradient id="paint20_linear_1561_39645" x1="7.74695" y1="19.6347" x2="7.73651" y2="21.9699" gradientUnits="userSpaceOnUse">
<stop stop-color="#FFD27E"/>
<stop offset="1" stop-color="#FB966A"/>
</linearGradient>
<linearGradient id="paint21_linear_1561_39645" x1="5.5328" y1="16.7365" x2="5.47798" y2="20.8471" gradientUnits="userSpaceOnUse">
<stop stop-color="#FFD27E"/>
<stop offset="1" stop-color="#FB966A"/>
</linearGradient>
<linearGradient id="paint22_linear_1561_39645" x1="11.0445" y1="9.40881" x2="11.0088" y2="13.9911" gradientUnits="userSpaceOnUse">
<stop stop-color="#FFD27E"/>
<stop offset="1" stop-color="#FB966A"/>
</linearGradient>
<linearGradient id="paint23_linear_1561_39645" x1="8.46138" y1="20.939" x2="8.44102" y2="24.624" gradientUnits="userSpaceOnUse">
<stop stop-color="#FFD27E"/>
<stop offset="1" stop-color="#FB966A"/>
</linearGradient>
<linearGradient id="paint24_linear_1561_39645" x1="16.8593" y1="13.9807" x2="16.7997" y2="20.9666" gradientUnits="userSpaceOnUse">
<stop stop-color="#FFD27E"/>
<stop offset="1" stop-color="#FB966A"/>
</linearGradient>
<linearGradient id="paint25_linear_1561_39645" x1="22.7833" y1="6.75894" x2="22.695" y2="12.832" gradientUnits="userSpaceOnUse">
<stop stop-color="#FFD27E"/>
<stop offset="1" stop-color="#FB966A"/>
</linearGradient>
<linearGradient id="paint26_linear_1561_39645" x1="96.6271" y1="5" x2="96.5856" y2="27" gradientUnits="userSpaceOnUse">
<stop stop-color="#FFD27E"/>
<stop offset="1" stop-color="#FB966A"/>
</linearGradient>
<linearGradient id="paint27_linear_1561_39645" x1="96.6271" y1="5" x2="96.5856" y2="27" gradientUnits="userSpaceOnUse">
<stop stop-color="#FFD27E"/>
<stop offset="1" stop-color="#FB966A"/>
</linearGradient>
<linearGradient id="paint28_linear_1561_39645" x1="96.6271" y1="5" x2="96.5856" y2="27" gradientUnits="userSpaceOnUse">
<stop stop-color="#FFD27E"/>
<stop offset="1" stop-color="#FB966A"/>
</linearGradient>
<linearGradient id="paint29_linear_1561_39645" x1="96.6271" y1="5" x2="96.5856" y2="27" gradientUnits="userSpaceOnUse">
<stop stop-color="#FFD27E"/>
<stop offset="1" stop-color="#FB966A"/>
</linearGradient>
<linearGradient id="paint30_linear_1561_39645" x1="96.6271" y1="5" x2="96.5856" y2="27" gradientUnits="userSpaceOnUse">
<stop stop-color="#FFD27E"/>
<stop offset="1" stop-color="#FB966A"/>
</linearGradient>
</defs>
</svg>
